<svg width="190" height="40" viewBox="0 0 190 40" fill="none" xmlns="http://www.w3.org/2000/svg">
<path d="M13.7803 16.8973H6.24675L5.12075 19.2998H0.348633V18.5791L8.95453 0H11.0725L19.7052 18.5791V19.2998H14.9063L13.7803 16.8973ZM10.0001 7.74127L7.82852 12.7598H12.1985L10.0001 7.74127Z" fill="#00A9A4"/>
<path d="M23.5928 19.0595V0C25.2282 0 26.8635 0 28.5794 0V7.20739H28.9279C33.8341 7.20739 33.566 3.55031 33.566 0C35.2282 0 36.8904 0 38.6062 0C38.6062 3.89733 38.7134 7.47433 34.9064 9.90349L40.1075 18.2854V19.0595H34.6652L30.456 11.692C29.8126 11.7988 29.196 11.7988 28.5794 11.7988V19.0595C26.8904 19.0595 25.255 19.0595 23.5928 19.0595Z" fill="#00A9A4"/>
<path d="M56.9438 9.15606C58.4988 9.95688 59.2494 11.3717 59.2494 13.0534C59.2226 16.3634 57.2119 19.0595 53.2977 19.0595H44.3433V0H52.5202C55.791 0 58.4451 2.56263 58.4451 5.846C58.4451 6.99384 57.8553 8.38193 56.9438 9.15606ZM49.035 4.35113V7.42094H52.1181C54.0484 7.42094 54.0484 4.35113 52.0913 4.35113H49.035ZM49.035 11.4784V14.7084H52.9492C54.9063 14.7084 54.8795 11.4784 52.9223 11.4784H49.035Z" fill="#00A9A4"/>
<path d="M75.4692 16.8973H67.9357L66.8097 19.2998H62.0376V18.5791L70.6167 0H72.7347L81.3674 18.5791V19.2998H76.5953L75.4692 16.8973ZM71.6623 7.74127L69.4907 12.7598H73.8607L71.6623 7.74127Z" fill="#00A9A4"/>
<path d="M102.145 0H103.887V19.1129C102.225 19.1129 100.563 19.1129 98.8741 19.1129V10.6242L94.799 14.8686H94.2628L90.2146 10.6242V19.1129C88.5524 19.1129 86.8902 19.1129 85.2012 19.1129V0H86.9974L94.4773 8.27515L102.145 0Z" fill="#4E4B4B"/>
<path d="M121.18 16.8973H113.646L112.52 19.2998H107.748V18.6057L116.327 0H118.445L127.078 18.6057V19.2998H122.306L121.18 16.8973ZM117.373 7.74127L115.201 12.7598H119.571L117.373 7.74127Z" fill="#4E4B4B"/>
<path d="M130.965 19.0595C130.965 12.7064 130.965 6.37988 130.965 0C133.727 0 136.569 0 139.384 0C148.552 0.026694 148.552 14.1745 139.384 14.1745H135.845V19.0595C134.209 19.0595 132.574 19.0595 130.965 19.0595ZM139.357 4.35113C138.204 4.32444 136.971 4.35113 135.872 4.35113C135.872 5.89938 135.872 8.24846 135.872 9.79671H139.357C142.038 9.79671 142.199 4.37782 139.357 4.35113Z" fill="#4E4B4B"/>
<path d="M153.083 19.1663H151.341V0.0800821C153.003 0.0800821 154.665 0.0800821 156.354 0.0800821V9.423L166.005 0H167.775V19.1396C166.113 19.1396 164.424 19.1396 162.708 19.1396V9.77002L153.083 19.1663Z" fill="#4E4B4B"/>
<path d="M190 19.0595C188.338 19.0595 186.676 19.0595 184.987 19.0595V11.3984H179.089V19.0595C177.426 19.0595 175.737 19.0595 174.075 19.0595V0C175.711 0 177.4 0 179.089 0V6.91376H184.987V0C186.649 0 188.311 0 190 0V19.0595Z" fill="#4E4B4B"/>
<path d="M81.4476 28.6693C80.6433 28.5091 79.6781 28.4023 78.5521 28.4023C72.0106 28.4023 72.0106 31.5789 65.469 31.5789C58.9275 31.5789 58.9275 28.4023 52.3859 28.4023C45.8443 28.4023 45.8444 31.5789 39.3028 31.5789C32.7612 31.5789 32.7612 28.4023 26.2197 28.4023C19.6781 28.4023 19.6781 31.5789 13.1366 31.5789C6.59502 31.5789 6.59502 28.4023 0.0534668 28.4023V34.7822C6.59502 34.7822 6.59502 37.9855 13.1366 37.9855C19.6781 37.9855 19.6781 34.7822 26.2197 34.7822C32.7612 34.7822 32.7612 37.9855 39.3028 37.9855C45.8444 37.9855 45.8443 34.7822 52.3859 34.7822C58.9275 34.7822 58.9275 37.9855 65.469 37.9855C72.0106 37.9855 72.0106 34.7822 78.5521 34.7822C79.7049 34.7822 80.6433 34.889 81.4476 35.0492V28.6693Z" fill="#00A9A4"/>
<path d="M85.5498 28.5098H87.2924V31.6063H87.3192L89.7857 28.5098H91.8769L88.9546 32.0067L92.0109 35.6104H89.9198L87.3192 32.5139H87.2924V35.6104H85.5498V28.5098Z" fill="#4E4B4B"/>
<path d="M98.9278 30.351C98.9278 30.698 98.8473 31.0184 98.6597 31.2853C98.472 31.5522 98.2039 31.7391 97.8822 31.8726V31.8993C98.3111 32.006 98.6328 32.1929 98.8473 32.4598C99.0618 32.7268 99.169 33.0471 99.169 33.4208C99.169 33.8746 99.035 34.275 98.7669 34.622C98.4988 34.9691 98.0966 35.236 97.5336 35.3962C97.3192 35.4496 97.1047 35.503 96.8366 35.5296C96.5685 35.5563 96.2468 35.583 95.8715 35.583H93.0833V28.4824H96.22C96.4881 28.4824 96.7294 28.5091 96.9438 28.5358C97.1583 28.5625 97.346 28.6159 97.5336 28.6693C97.9894 28.8028 98.3647 29.043 98.606 29.3366C98.7937 29.6036 98.9278 29.9506 98.9278 30.351ZM96.0859 31.312C96.3808 31.312 96.5953 31.2853 96.7294 31.2052C96.8634 31.1251 96.9438 31.045 97.0243 30.9383C97.0779 30.8315 97.1047 30.698 97.1047 30.5646C97.1047 30.2976 96.9975 30.0841 96.7562 29.9773C96.6221 29.8972 96.4076 29.8705 96.0859 29.8705H94.7454V31.3387H96.0859V31.312ZM96.0323 34.2483C96.22 34.2483 96.3808 34.2483 96.5149 34.2216C96.6489 34.1949 96.7562 34.1683 96.8366 34.1416C97.0243 34.0615 97.1315 33.9814 97.2387 33.8479C97.3192 33.7145 97.3728 33.581 97.3728 33.3941C97.3728 33.234 97.346 33.1005 97.2656 32.9937C97.1851 32.8869 97.0779 32.7802 96.9438 32.7268C96.8634 32.7001 96.783 32.6734 96.6757 32.6467C96.5685 32.62 96.4613 32.62 96.3004 32.62H94.8259V34.2216H96.0323V34.2483Z" fill="#4E4B4B"/>
<path d="M104.853 34.8359H104.826C104.719 34.9427 104.611 35.0495 104.477 35.1563C104.343 35.263 104.182 35.3698 103.995 35.4499C103.807 35.5567 103.619 35.6101 103.405 35.6902C103.19 35.7435 102.949 35.7702 102.708 35.7702C102.359 35.7702 102.064 35.7168 101.77 35.6101C101.475 35.5033 101.233 35.3431 101.019 35.1563C100.804 34.9694 100.643 34.7292 100.509 34.4355C100.402 34.1419 100.322 33.8483 100.322 33.5012C100.322 33.1275 100.402 32.7805 100.536 32.4869C100.67 32.1932 100.858 31.9263 101.126 31.7127C101.367 31.4992 101.662 31.339 102.011 31.2322C102.359 31.1255 102.735 31.0721 103.164 31.0721C103.485 31.0721 103.753 31.0988 104.022 31.1255C104.29 31.1522 104.504 31.2055 104.719 31.2589V30.9653C104.719 30.8051 104.692 30.645 104.638 30.4848C104.585 30.3246 104.504 30.1912 104.37 30.0844C104.236 29.9776 104.075 29.8708 103.887 29.7908C103.673 29.7107 103.432 29.684 103.164 29.684C102.815 29.684 102.467 29.7107 102.091 29.7908C101.743 29.8708 101.367 29.9776 100.938 30.1378V28.7764C101.287 28.6162 101.689 28.5095 102.091 28.4294C102.493 28.3493 102.922 28.2959 103.351 28.2959C103.861 28.2959 104.316 28.3493 104.719 28.4828C105.121 28.6162 105.442 28.7764 105.684 29.0166C105.952 29.2302 106.139 29.4971 106.274 29.7908C106.408 30.0844 106.461 30.4314 106.461 30.7784V33.4479C106.461 33.9283 106.461 34.3288 106.488 34.6491C106.488 34.9961 106.515 35.2897 106.515 35.5567H104.933L104.853 34.8359ZM104.719 32.5669C104.558 32.5403 104.37 32.4869 104.156 32.4602C103.941 32.4335 103.727 32.4068 103.512 32.4068C103.083 32.4068 102.735 32.4869 102.493 32.647C102.252 32.8072 102.118 33.0741 102.118 33.4212C102.118 33.5813 102.145 33.7148 102.198 33.8483C102.252 33.955 102.333 34.0618 102.44 34.1419C102.547 34.222 102.654 34.2754 102.761 34.3288C102.869 34.3821 103.03 34.3821 103.164 34.3821C103.351 34.3821 103.512 34.3554 103.673 34.3021C103.834 34.2487 103.968 34.1953 104.102 34.1152C104.236 34.0351 104.343 33.955 104.45 33.875C104.558 33.7949 104.638 33.7148 104.719 33.608V32.5669Z" fill="#4E4B4B"/>
<path d="M111.984 35.7706C111.609 35.7706 111.26 35.6905 110.939 35.557C110.617 35.4235 110.376 35.2367 110.161 35.0498H110.134C110.134 35.1566 110.134 35.2901 110.161 35.4769C110.161 35.6638 110.161 35.8506 110.161 36.0642V39.0272H108.418V28.5098H109.947L110.027 29.3106H110.054C110.268 29.017 110.536 28.8034 110.885 28.6165C111.233 28.4297 111.609 28.3496 112.065 28.3496C112.44 28.3496 112.842 28.4297 113.217 28.5632C113.593 28.6966 113.914 28.9369 114.209 29.2305C114.504 29.5241 114.719 29.8979 114.906 30.3517C115.067 30.8055 115.174 31.3393 115.174 31.98C115.174 32.6473 115.094 33.2079 114.906 33.6884C114.719 34.1689 114.477 34.5693 114.183 34.8896C113.888 35.21 113.539 35.4502 113.164 35.5837C112.762 35.6905 112.386 35.7706 111.984 35.7706ZM111.77 29.711C111.475 29.711 111.18 29.7911 110.912 29.9246C110.644 30.058 110.402 30.2716 110.188 30.5118V33.6884C110.268 33.7685 110.349 33.8486 110.456 33.9287C110.563 34.0087 110.67 34.0888 110.805 34.1689C110.939 34.249 111.073 34.3024 111.233 34.3291C111.394 34.3825 111.555 34.3825 111.716 34.3825C111.984 34.3825 112.225 34.3291 112.44 34.2223C112.654 34.1155 112.815 33.9554 112.976 33.7418C113.11 33.5283 113.217 33.288 113.298 32.9944C113.378 32.7007 113.405 32.3804 113.405 32.0334C113.405 31.6597 113.378 31.3126 113.298 31.019C113.217 30.7254 113.11 30.4851 112.976 30.2983C112.842 30.1114 112.681 29.9513 112.467 29.8712C112.225 29.7644 112.011 29.711 111.77 29.711Z" fill="#4E4B4B"/>
<path d="M118.177 29.9506H115.898V28.4824H122.198V29.9506H119.92V35.583H118.177V29.9506Z" fill="#4E4B4B"/>
<path d="M127.48 34.8359H127.453C127.346 34.9427 127.239 35.0495 127.105 35.1563C126.971 35.263 126.81 35.3698 126.622 35.4499C126.434 35.5567 126.247 35.6101 126.032 35.6902C125.818 35.7435 125.577 35.7702 125.335 35.7702C124.987 35.7702 124.692 35.7168 124.397 35.6101C124.102 35.5033 123.861 35.3431 123.646 35.1563C123.432 34.9694 123.271 34.7292 123.137 34.4355C123.03 34.1419 122.949 33.8483 122.949 33.5012C122.949 33.1275 123.03 32.7805 123.164 32.4869C123.298 32.1932 123.485 31.9263 123.754 31.7127C123.995 31.4992 124.29 31.339 124.638 31.2322C124.987 31.1255 125.362 31.0721 125.791 31.0721C126.113 31.0721 126.381 31.0988 126.649 31.1255C126.917 31.1522 127.132 31.2055 127.346 31.2589V30.9653C127.346 30.8051 127.319 30.645 127.266 30.4848C127.212 30.3246 127.132 30.1912 126.997 30.0844C126.863 29.9776 126.703 29.8708 126.515 29.7908C126.3 29.7107 126.059 29.684 125.791 29.684C125.443 29.684 125.094 29.7107 124.719 29.7908C124.37 29.8708 123.995 29.9776 123.566 30.1378V28.7764C123.914 28.6162 124.317 28.5095 124.719 28.4294C125.121 28.3493 125.55 28.2959 125.979 28.2959C126.488 28.2959 126.944 28.3493 127.346 28.4828C127.748 28.6162 128.07 28.7764 128.311 29.0166C128.579 29.2302 128.767 29.4971 128.901 29.7908C129.035 30.0844 129.089 30.4314 129.089 30.7784V33.4479C129.089 33.9283 129.089 34.3288 129.115 34.6491C129.115 34.9961 129.142 35.2897 129.142 35.5567H127.56L127.48 34.8359ZM127.346 32.5669C127.185 32.5403 126.997 32.4869 126.783 32.4602C126.569 32.4335 126.354 32.4068 126.14 32.4068C125.711 32.4068 125.362 32.4869 125.121 32.647C124.88 32.8072 124.745 33.0741 124.745 33.4212C124.745 33.5813 124.772 33.7148 124.826 33.8483C124.88 33.955 124.96 34.0618 125.067 34.1419C125.174 34.222 125.282 34.2754 125.389 34.3288C125.496 34.3821 125.657 34.3821 125.791 34.3821C125.979 34.3821 126.14 34.3554 126.3 34.3021C126.461 34.2487 126.595 34.1953 126.729 34.1152C126.863 34.0351 126.971 33.955 127.078 33.875C127.185 33.7949 127.266 33.7148 127.346 33.608V32.5669Z" fill="#4E4B4B"/>
<path d="M137.158 28.5091V35.6097H135.416V29.9506H134.156C134.022 30.8849 133.888 31.659 133.727 32.2997C133.566 32.9403 133.405 33.4742 133.217 33.9013C133.03 34.3284 132.842 34.6754 132.654 34.9157C132.467 35.1559 132.252 35.3428 132.065 35.4496C131.877 35.5563 131.662 35.6364 131.448 35.6631C131.233 35.6898 131.019 35.7165 130.804 35.7165C130.724 35.7165 130.617 35.7165 130.536 35.7165C130.429 35.7165 130.349 35.6898 130.241 35.6631V34.1149C130.376 34.1416 130.51 34.1416 130.644 34.1416C130.831 34.1416 130.965 34.1149 131.099 34.0882C131.233 34.0615 131.341 33.9547 131.448 33.8479C131.555 33.7145 131.662 33.5543 131.77 33.2874C131.877 33.0471 131.984 32.7001 132.091 32.2997C132.199 31.8726 132.306 31.3654 132.413 30.7247C132.52 30.1108 132.628 29.3633 132.762 28.4824H137.158V28.5091Z" fill="#4E4B4B"/>
<path d="M141.287 28.5098H143.164L144.236 31.0724C144.638 32.0601 144.933 32.7808 145.094 33.2346H145.121C145.255 32.8609 145.496 32.1935 145.898 31.2059L146.998 28.5098H148.901L144.317 39.0272H142.601L144.236 35.2367L141.287 28.5098Z" fill="#4E4B4B"/>
<path d="M159.812 32.0601C159.812 32.6207 159.732 33.1278 159.571 33.5816C159.41 34.0354 159.169 34.4359 158.847 34.7562C158.526 35.0765 158.15 35.3435 157.721 35.5036C157.292 35.6638 156.783 35.7706 156.247 35.7706C155.684 35.7706 155.174 35.6905 154.745 35.5036C154.317 35.3168 153.914 35.0765 153.619 34.7562C153.298 34.4359 153.083 34.0354 152.922 33.5816C152.762 33.1278 152.681 32.6207 152.681 32.0601C152.681 31.4995 152.762 30.9923 152.922 30.5385C153.083 30.0847 153.325 29.6843 153.646 29.364C153.968 29.0437 154.343 28.7767 154.772 28.6165C155.201 28.4297 155.711 28.3496 156.247 28.3496C156.81 28.3496 157.319 28.4297 157.748 28.6165C158.204 28.8034 158.579 29.0437 158.874 29.364C159.196 29.6843 159.41 30.0847 159.571 30.5385C159.732 30.9923 159.812 31.4995 159.812 32.0601ZM158.016 32.0601C158.016 31.6864 157.963 31.3393 157.882 31.0724C157.802 30.7788 157.668 30.5385 157.507 30.3517C157.346 30.1648 157.158 30.0046 156.944 29.9246C156.729 29.8178 156.488 29.7911 156.22 29.7911C155.952 29.7911 155.737 29.8445 155.523 29.9246C155.308 30.0313 155.121 30.1648 154.96 30.3517C154.799 30.5385 154.692 30.7788 154.585 31.0724C154.504 31.366 154.451 31.6864 154.451 32.0601C154.451 32.4338 154.504 32.7808 154.585 33.0478C154.665 33.3414 154.799 33.5816 154.96 33.7685C155.121 33.9554 155.308 34.1155 155.523 34.1956C155.737 34.3024 155.979 34.3558 156.247 34.3558C156.515 34.3558 156.756 34.3024 156.971 34.1956C157.185 34.0888 157.373 33.9554 157.534 33.7685C157.695 33.5816 157.802 33.3414 157.909 33.0478C157.963 32.7541 158.016 32.4338 158.016 32.0601Z" fill="#4E4B4B"/>
<path d="M160.885 28.7494C161.26 28.6159 161.636 28.4824 162.065 28.429C162.493 28.349 162.922 28.3223 163.325 28.3223C163.78 28.3223 164.209 28.3757 164.585 28.4824C164.96 28.5892 165.255 28.7227 165.523 28.9095C165.764 29.0964 165.979 29.3099 166.113 29.5502C166.247 29.7904 166.3 30.0841 166.3 30.4044C166.3 30.7781 166.22 31.0718 166.032 31.3387C165.845 31.6056 165.63 31.7925 165.362 31.926V31.9527C165.523 32.006 165.684 32.0861 165.818 32.1662C165.952 32.2463 166.086 32.3798 166.193 32.4865C166.3 32.62 166.381 32.7535 166.434 32.9136C166.488 33.0738 166.515 33.2607 166.515 33.4742C166.515 33.7945 166.461 34.0882 166.327 34.3551C166.193 34.6488 166.006 34.889 165.737 35.1026C165.469 35.3161 165.121 35.4763 164.719 35.6097C164.29 35.7432 163.807 35.7966 163.217 35.7966C162.735 35.7966 162.279 35.7699 161.877 35.6898C161.475 35.6097 161.126 35.503 160.804 35.3695V33.9814C161.18 34.1416 161.555 34.2483 161.93 34.3284C162.306 34.4085 162.654 34.4352 163.003 34.4352C163.325 34.4352 163.593 34.4085 163.807 34.3818C164.022 34.3284 164.209 34.275 164.317 34.195C164.451 34.1149 164.531 34.0081 164.585 33.9013C164.638 33.7945 164.665 33.6611 164.665 33.5276C164.665 33.1272 164.451 32.8869 164.048 32.8069C163.888 32.7802 163.646 32.7535 163.351 32.7535H161.716V31.3921H163.432C163.673 31.3921 163.861 31.3654 163.968 31.3387C164.156 31.2853 164.263 31.1785 164.343 31.0451C164.424 30.9116 164.451 30.7781 164.451 30.618C164.451 30.351 164.343 30.1642 164.129 30.004C163.914 29.8705 163.566 29.7904 163.11 29.7904C162.735 29.7904 162.359 29.8438 161.957 29.9239C161.582 30.004 161.207 30.1108 160.858 30.2175V28.7494H160.885Z" fill="#4E4B4B"/>
<path d="M171.716 34.3818C172.065 34.3818 172.413 34.3551 172.788 34.275C173.164 34.195 173.539 34.1149 173.914 33.9814V35.3695C173.7 35.4763 173.351 35.5564 172.869 35.6364C172.413 35.7165 171.931 35.7699 171.421 35.7699C170.912 35.7699 170.429 35.7165 169.973 35.583C169.518 35.4496 169.115 35.236 168.794 34.9691C168.445 34.6755 168.177 34.3017 167.989 33.8479C167.802 33.3941 167.695 32.8336 167.695 32.1662C167.695 31.5256 167.775 30.965 167.963 30.4845C168.15 30.004 168.392 29.6036 168.713 29.2833C169.035 28.9629 169.384 28.7227 169.786 28.5625C170.188 28.4023 170.617 28.3223 171.046 28.3223C171.502 28.3223 171.904 28.4023 172.306 28.5358C172.681 28.6693 173.003 28.8828 173.298 29.1765C173.566 29.4701 173.78 29.8438 173.941 30.2976C174.102 30.7514 174.183 31.312 174.183 31.926C174.183 32.1662 174.183 32.3798 174.156 32.5399H169.437C169.464 32.8603 169.544 33.1539 169.652 33.3674C169.786 33.6077 169.947 33.7945 170.134 33.928C170.322 34.0615 170.563 34.1683 170.831 34.2483C171.099 34.3551 171.394 34.3818 171.716 34.3818ZM171.019 29.6837C170.805 29.6837 170.59 29.7371 170.429 29.8171C170.268 29.8972 170.107 30.004 169.973 30.1375C169.839 30.2709 169.759 30.4311 169.678 30.618C169.598 30.8048 169.544 30.9917 169.544 31.2052H172.359C172.359 30.9917 172.333 30.8048 172.279 30.618C172.225 30.4311 172.145 30.2709 172.038 30.1375C171.931 30.004 171.796 29.8972 171.636 29.8171C171.421 29.7104 171.233 29.6837 171.019 29.6837Z" fill="#4E4B4B"/>
<path d="M179.33 35.7706C178.955 35.7706 178.606 35.6905 178.284 35.557C177.963 35.4235 177.721 35.2367 177.507 35.0498H177.48C177.48 35.1566 177.48 35.2901 177.507 35.4769C177.507 35.6638 177.507 35.8506 177.507 36.0642V39.0272H175.764V28.5098H177.292L177.373 29.3106H177.4C177.614 29.017 177.882 28.8034 178.231 28.6165C178.579 28.4297 178.955 28.3496 179.41 28.3496C179.786 28.3496 180.188 28.4297 180.563 28.5632C180.938 28.6966 181.26 28.9369 181.555 29.2305C181.85 29.5241 182.064 29.8979 182.252 30.3517C182.413 30.8055 182.52 31.3393 182.52 31.98C182.52 32.6473 182.44 33.2079 182.252 33.6884C182.064 34.1689 181.823 34.5693 181.528 34.8896C181.233 35.21 180.885 35.4502 180.509 35.5837C180.107 35.6905 179.732 35.7706 179.33 35.7706ZM179.089 29.711C178.794 29.711 178.499 29.7911 178.231 29.9246C177.963 30.058 177.721 30.2716 177.507 30.5118V33.6884C177.587 33.7685 177.668 33.8486 177.775 33.9287C177.882 34.0087 177.989 34.0888 178.123 34.1689C178.257 34.249 178.391 34.3024 178.552 34.3291C178.713 34.3825 178.874 34.3825 179.035 34.3825C179.303 34.3825 179.544 34.3291 179.759 34.2223C179.973 34.1155 180.134 33.9554 180.295 33.7418C180.429 33.5283 180.536 33.288 180.617 32.9944C180.697 32.7007 180.724 32.3804 180.724 32.0334C180.724 31.6597 180.697 31.3126 180.617 31.019C180.536 30.7254 180.429 30.4851 180.295 30.2983C180.161 30.1114 180 29.9513 179.786 29.8712C179.571 29.7644 179.33 29.711 179.089 29.711Z" fill="#4E4B4B"/>
<path d="M188.231 34.8359H188.204C188.097 34.9427 187.989 35.0495 187.855 35.1563C187.721 35.263 187.561 35.3698 187.373 35.4499C187.185 35.5567 186.998 35.6101 186.783 35.6902C186.569 35.7435 186.327 35.7702 186.086 35.7702C185.737 35.7702 185.443 35.7168 185.148 35.6101C184.853 35.5033 184.611 35.3431 184.397 35.1563C184.183 34.9694 184.022 34.7292 183.888 34.4355C183.78 34.1419 183.7 33.8483 183.7 33.5012C183.7 33.1275 183.78 32.7805 183.914 32.4869C184.048 32.1932 184.236 31.9263 184.504 31.7127C184.746 31.4992 185.04 31.339 185.389 31.2322C185.737 31.1255 186.113 31.0721 186.542 31.0721C186.863 31.0721 187.132 31.0988 187.4 31.1255C187.668 31.1522 187.882 31.2055 188.097 31.2589V30.9653C188.097 30.8051 188.07 30.645 188.016 30.4848C187.963 30.3246 187.882 30.1912 187.748 30.0844C187.614 29.9776 187.453 29.8708 187.266 29.7908C187.051 29.7107 186.81 29.684 186.542 29.684C186.193 29.684 185.845 29.7107 185.469 29.7908C185.121 29.8708 184.746 29.9776 184.317 30.1378V28.7764C184.665 28.6162 185.067 28.5095 185.469 28.4294C185.872 28.3493 186.3 28.2959 186.729 28.2959C187.239 28.2959 187.695 28.3493 188.097 28.4828C188.499 28.6162 188.821 28.7764 189.062 29.0166C189.33 29.2302 189.518 29.4971 189.652 29.7908C189.786 30.0844 189.839 30.4314 189.839 30.7784V33.4479C189.839 33.9283 189.839 34.3288 189.866 34.6491C189.866 34.9961 189.893 35.2897 189.893 35.5567H188.311L188.231 34.8359ZM188.097 32.5669C187.936 32.5403 187.748 32.4869 187.534 32.4602C187.319 32.4335 187.105 32.4068 186.89 32.4068C186.461 32.4068 186.113 32.4869 185.872 32.647C185.63 32.8072 185.496 33.0741 185.496 33.4212C185.496 33.5813 185.523 33.7148 185.577 33.8483C185.63 33.955 185.711 34.0618 185.818 34.1419C185.925 34.222 186.032 34.2754 186.14 34.3288C186.247 34.3821 186.408 34.3821 186.542 34.3821C186.729 34.3821 186.89 34.3554 187.051 34.3021C187.212 34.2487 187.346 34.1953 187.48 34.1152C187.614 34.0351 187.721 33.955 187.829 33.875C187.936 33.7949 188.016 33.7148 188.097 33.608V32.5669Z" fill="#4E4B4B"/>
</svg>
