<svg width="191" height="39" viewBox="0 0 191 39" fill="none" xmlns="http://www.w3.org/2000/svg">
    <path d="M13.8025 16.8882H6.22722L5.09497 19.2866H0.296387V18.5671L8.95001 0.0195312H11.0797L19.7603 18.5671V19.2866H14.9348L13.8025 16.8882ZM10.0014 7.74769L7.81776 12.7577H12.212L10.0014 7.74769Z" fill="#F9F9F9"/>
    <path d="M23.6694 19.0468V0.0195312C25.3139 0.0195312 26.9583 0.0195312 28.6837 0.0195312V7.21472H29.0341C33.9675 7.21472 33.6979 3.56383 33.6979 0.0195312C35.3693 0.0195312 37.0408 0.0195312 38.7661 0.0195312C38.7661 3.91026 38.8739 7.4812 35.0458 9.90625L40.2758 18.274V19.0468H34.8032L30.5708 11.6917C29.9238 11.7983 29.3037 11.7983 28.6837 11.7983V19.0468C26.9853 19.0468 25.3409 19.0468 23.6694 19.0468Z" fill="#F9F9F9"/>
    <path d="M57.2061 9.16008C58.7696 9.95955 59.5245 11.3719 59.5245 13.0508C59.4975 16.3553 57.4756 19.0468 53.5397 19.0468H44.5356V0.0195312H52.7579C56.0469 0.0195312 58.7157 2.57782 58.7157 5.85563C58.7157 7.00153 58.1226 8.38727 57.2061 9.16008ZM49.2534 4.36329V7.42791H52.3536C54.2946 7.42791 54.2946 4.36329 52.3266 4.36329H49.2534ZM49.2534 11.4785V14.703H53.1893C55.1572 14.703 55.1303 11.4785 53.1623 11.4785H49.2534Z" fill="#F9F9F9"/>
    <path d="M75.8338 16.8882H68.2585L67.1262 19.2866H62.3276V18.5671L70.9543 0.0195312H73.084L81.7646 18.5671V19.2866H76.966L75.8338 16.8882ZM72.0057 7.74769L69.8221 12.7577H74.2163L72.0057 7.74769Z" fill="#F9F9F9"/>
    <path d="M102.657 0.0195312H104.41V19.1001C102.738 19.1001 101.067 19.1001 99.3684 19.1001V10.6258L95.2707 14.8629H94.7315L90.6608 10.6258V19.1001C88.9894 19.1001 87.318 19.1001 85.6196 19.1001V0.0195312H87.4258L94.9472 8.28067L102.657 0.0195312Z" fill="#F9F9F9"/>
    <path d="M121.798 16.8882H114.222L113.09 19.2866H108.292V18.5938L116.918 0.0195312H119.048L127.728 18.5938V19.2866H122.93L121.798 16.8882ZM117.97 7.74769L115.786 12.7577H120.18L117.97 7.74769Z" fill="#F9F9F9"/>
    <path d="M131.638 19.0468C131.638 12.7044 131.638 6.3886 131.638 0.0195312C134.414 0.0195312 137.272 0.0195312 140.103 0.0195312C149.322 0.0461801 149.322 14.1701 140.103 14.1701H136.544V19.0468C134.9 19.0468 133.255 19.0468 131.638 19.0468ZM140.076 4.36329C138.916 4.33664 137.676 4.36329 136.571 4.36329C136.571 5.90892 136.571 8.25402 136.571 9.79965H140.076C142.771 9.79965 142.933 4.38994 140.076 4.36329Z" fill="#F9F9F9"/>
    <path d="M153.878 19.1534H152.126V0.0994777C153.797 0.0994777 155.469 0.0994777 157.167 0.0994777V9.42657L166.872 0.0195312H168.651V19.1267C166.98 19.1267 165.282 19.1267 163.556 19.1267V9.773L153.878 19.1534Z" fill="#F9F9F9"/>
    <path d="M191 19.0468C189.328 19.0468 187.657 19.0468 185.958 19.0468V11.3986H180.028V19.0468C178.356 19.0468 176.658 19.0468 174.986 19.0468V0.0195312C176.631 0.0195312 178.329 0.0195312 180.028 0.0195312V6.92158H185.958V0.0195312C187.63 0.0195312 189.301 0.0195312 191 0.0195312V19.0468Z" fill="#F9F9F9"/>
    <path d="M81.8455 28.6395C81.0367 28.4796 80.0662 28.373 78.934 28.373C72.3561 28.373 72.3562 31.5443 65.7783 31.5443C59.2005 31.5443 59.2005 28.373 52.6227 28.373C46.0448 28.373 46.0448 31.5443 39.467 31.5443C32.8892 31.5443 32.8892 28.373 26.3113 28.373C19.7335 28.373 19.7335 31.5443 13.1557 31.5443C6.57783 31.5443 6.57783 28.373 0 28.373V34.7421C6.57783 34.7421 6.57783 37.94 13.1557 37.94C19.7335 37.94 19.7335 34.7421 26.3113 34.7421C32.8892 34.7421 32.8892 37.94 39.467 37.94C46.0448 37.94 46.0448 34.7421 52.6227 34.7421C59.2005 34.7421 59.2005 37.94 65.7783 37.94C72.3562 37.94 72.3561 34.7421 78.934 34.7421C80.0932 34.7421 81.0367 34.8487 81.8455 35.0086V28.6395Z" fill="#F9F9F9"/>
    <path d="M85.9697 28.4805H87.722V31.5717H87.749L90.2291 28.4805H92.3319L89.3934 31.9715L92.4667 35.5691H90.3639L87.749 32.4778H87.722V35.5691H85.9697V28.4805Z" fill="#F9F9F9"/>
    <path d="M99.4223 30.3185C99.4223 30.665 99.3414 30.9848 99.1527 31.2513C98.964 31.5177 98.6944 31.7043 98.3709 31.8375V31.8642C98.8023 31.9708 99.1258 32.1573 99.3415 32.4238C99.5571 32.6903 99.6649 33.0101 99.6649 33.3832C99.6649 33.8362 99.5302 34.2359 99.2606 34.5824C98.991 34.9288 98.5866 35.1953 98.0205 35.3552C97.8048 35.4085 97.5892 35.4618 97.3196 35.4884C97.05 35.5151 96.7265 35.5417 96.3491 35.5417H93.5454V28.4531H96.6995C96.9691 28.4531 97.2117 28.4798 97.4274 28.5064C97.6431 28.5331 97.8318 28.5864 98.0205 28.6397C98.4788 28.7729 98.8562 29.0128 99.0988 29.3059C99.2875 29.5724 99.4223 29.9188 99.4223 30.3185ZM96.5647 31.2779C96.8613 31.2779 97.0769 31.2513 97.2117 31.1713C97.3465 31.0914 97.4274 31.0114 97.5083 30.9048C97.5622 30.7982 97.5892 30.665 97.5892 30.5317C97.5892 30.2652 97.4813 30.0521 97.2387 29.9455C97.1039 29.8655 96.8882 29.8389 96.5647 29.8389H95.2168V31.3046H96.5647V31.2779ZM96.5108 34.2093C96.6995 34.2093 96.8613 34.2093 96.9961 34.1826C97.1309 34.156 97.2387 34.1293 97.3196 34.1027C97.5083 34.0227 97.6161 33.9428 97.724 33.8095C97.8048 33.6763 97.8587 33.5431 97.8587 33.3565C97.8587 33.1966 97.8318 33.0634 97.7509 32.9568C97.67 32.8502 97.5622 32.7436 97.4274 32.6903C97.3465 32.6636 97.2657 32.637 97.1578 32.6103C97.05 32.5837 96.9422 32.5837 96.7804 32.5837H95.2977V34.1826H96.5108V34.2093Z" fill="#F9F9F9"/>
    <path d="M105.38 34.7956H105.353C105.245 34.9022 105.138 35.0088 105.003 35.1154C104.868 35.2219 104.706 35.3285 104.518 35.4085C104.329 35.5151 104.14 35.5684 103.924 35.6483C103.709 35.7016 103.466 35.7283 103.224 35.7283C102.873 35.7283 102.577 35.675 102.28 35.5684C101.983 35.4618 101.741 35.3019 101.525 35.1154C101.309 34.9288 101.148 34.689 101.013 34.3958C100.905 34.1027 100.824 33.8096 100.824 33.4631C100.824 33.09 100.905 32.7436 101.04 32.4505C101.175 32.1573 101.363 31.8908 101.633 31.6777C101.876 31.4645 102.172 31.3046 102.523 31.198C102.873 31.0914 103.25 31.0381 103.682 31.0381C104.005 31.0381 104.275 31.0647 104.544 31.0914C104.814 31.118 105.03 31.1713 105.245 31.2246V30.9315C105.245 30.7716 105.218 30.6117 105.165 30.4518C105.111 30.2919 105.03 30.1587 104.895 30.0521C104.76 29.9455 104.598 29.8389 104.41 29.7589C104.194 29.679 103.951 29.6523 103.682 29.6523C103.331 29.6523 102.981 29.679 102.603 29.7589C102.253 29.8389 101.876 29.9455 101.444 30.1054V28.7463C101.795 28.5864 102.199 28.4798 102.603 28.3998C103.008 28.3199 103.439 28.2666 103.871 28.2666C104.383 28.2666 104.841 28.3199 105.245 28.4531C105.65 28.5864 105.973 28.7463 106.216 28.9861C106.485 29.1993 106.674 29.4658 106.809 29.7589C106.944 30.0521 106.998 30.3985 106.998 30.7449V33.4098C106.998 33.8895 106.998 34.2892 107.025 34.609C107.025 34.9555 107.052 35.2486 107.052 35.5151H105.461L105.38 34.7956ZM105.245 32.5304C105.084 32.5038 104.895 32.4505 104.679 32.4238C104.464 32.3972 104.248 32.3705 104.032 32.3705C103.601 32.3705 103.25 32.4505 103.008 32.6104C102.765 32.7703 102.63 33.0367 102.63 33.3832C102.63 33.5431 102.657 33.6763 102.711 33.8096C102.765 33.9162 102.846 34.0227 102.954 34.1027C103.062 34.1826 103.17 34.2359 103.277 34.2892C103.385 34.3425 103.547 34.3425 103.682 34.3425C103.871 34.3425 104.032 34.3159 104.194 34.2626C104.356 34.2093 104.491 34.156 104.625 34.076C104.76 33.9961 104.868 33.9162 104.976 33.8362C105.084 33.7563 105.165 33.6763 105.245 33.5697V32.5304Z" fill="#F9F9F9"/>
    <path d="M112.55 35.7287C112.173 35.7287 111.822 35.6487 111.499 35.5155C111.175 35.3823 110.933 35.1957 110.717 35.0092H110.69C110.69 35.1158 110.69 35.249 110.717 35.4355C110.717 35.6221 110.717 35.8086 110.717 36.0218V38.9798H108.965V28.4802H110.501L110.582 29.2797H110.609C110.825 28.9865 111.095 28.7733 111.445 28.5868C111.795 28.4003 112.173 28.3203 112.631 28.3203C113.009 28.3203 113.413 28.4003 113.79 28.5335C114.168 28.6667 114.491 28.9066 114.788 29.1997C115.084 29.4929 115.3 29.8659 115.489 30.319C115.651 30.772 115.758 31.305 115.758 31.9446C115.758 32.6108 115.677 33.1704 115.489 33.6501C115.3 34.1298 115.057 34.5295 114.761 34.8493C114.464 35.1691 114.114 35.4089 113.736 35.5421C113.332 35.6487 112.955 35.7287 112.55 35.7287ZM112.335 29.6794C112.038 29.6794 111.742 29.7593 111.472 29.8926C111.202 30.0258 110.96 30.239 110.744 30.4789V33.6501C110.825 33.73 110.906 33.81 111.014 33.8899C111.122 33.9699 111.229 34.0498 111.364 34.1298C111.499 34.2097 111.634 34.263 111.795 34.2897C111.957 34.343 112.119 34.3429 112.281 34.3429C112.55 34.3429 112.793 34.2897 113.009 34.1831C113.224 34.0765 113.386 33.9166 113.548 33.7034C113.683 33.4902 113.79 33.2503 113.871 32.9572C113.952 32.6641 113.979 32.3443 113.979 31.9979C113.979 31.6248 113.952 31.2783 113.871 30.9852C113.79 30.6921 113.683 30.4522 113.548 30.2657C113.413 30.0791 113.251 29.9192 113.036 29.8393C112.793 29.7327 112.577 29.6794 112.335 29.6794Z" fill="#F9F9F9"/>
    <path d="M118.778 29.9188H116.487V28.4531H122.822V29.9188H120.531V35.5417H118.778V29.9188Z" fill="#F9F9F9"/>
    <path d="M128.132 34.7956H128.105C127.997 34.9022 127.89 35.0088 127.755 35.1154C127.62 35.2219 127.458 35.3285 127.269 35.4085C127.081 35.5151 126.892 35.5684 126.676 35.6483C126.461 35.7016 126.218 35.7283 125.975 35.7283C125.625 35.7283 125.328 35.675 125.032 35.5684C124.735 35.4618 124.493 35.3019 124.277 35.1154C124.061 34.9288 123.9 34.689 123.765 34.3958C123.657 34.1027 123.576 33.8096 123.576 33.4631C123.576 33.09 123.657 32.7436 123.792 32.4505C123.927 32.1573 124.115 31.8908 124.385 31.6777C124.628 31.4645 124.924 31.3046 125.275 31.198C125.625 31.0914 126.002 31.0381 126.434 31.0381C126.757 31.0381 127.027 31.0647 127.296 31.0914C127.566 31.118 127.782 31.1713 127.997 31.2246V30.9315C127.997 30.7716 127.97 30.6117 127.916 30.4518C127.863 30.2919 127.782 30.1587 127.647 30.0521C127.512 29.9455 127.35 29.8389 127.162 29.7589C126.946 29.679 126.703 29.6523 126.434 29.6523C126.083 29.6523 125.733 29.679 125.355 29.7589C125.005 29.8389 124.628 29.9455 124.196 30.1054V28.7463C124.547 28.5864 124.951 28.4798 125.355 28.3998C125.76 28.3199 126.191 28.2666 126.622 28.2666C127.135 28.2666 127.593 28.3199 127.997 28.4531C128.402 28.5864 128.725 28.7463 128.968 28.9861C129.237 29.1993 129.426 29.4658 129.561 29.7589C129.696 30.0521 129.75 30.3985 129.75 30.7449V33.4098C129.75 33.8895 129.75 34.2892 129.777 34.609C129.777 34.9555 129.804 35.2486 129.804 35.5151H128.213L128.132 34.7956ZM127.997 32.5304C127.836 32.5038 127.647 32.4505 127.431 32.4238C127.216 32.3972 127 32.3705 126.784 32.3705C126.353 32.3705 126.002 32.4505 125.76 32.6104C125.517 32.7703 125.382 33.0367 125.382 33.3832C125.382 33.5431 125.409 33.6763 125.463 33.8096C125.517 33.9162 125.598 34.0227 125.706 34.1027C125.814 34.1826 125.922 34.2359 126.029 34.2892C126.137 34.3425 126.299 34.3425 126.434 34.3425C126.622 34.3425 126.784 34.3159 126.946 34.2626C127.108 34.2093 127.243 34.156 127.377 34.076C127.512 33.9961 127.62 33.9162 127.728 33.8362C127.836 33.7563 127.916 33.6763 127.997 33.5697V32.5304Z" fill="#F9F9F9"/>
    <path d="M137.864 28.4798V35.5684H136.112V29.9188H134.845C134.71 30.8515 134.576 31.6243 134.414 32.2639C134.252 32.9035 134.09 33.4365 133.902 33.8628C133.713 34.2892 133.524 34.6357 133.335 34.8755C133.147 35.1153 132.931 35.3019 132.742 35.4085C132.554 35.5151 132.338 35.595 132.122 35.6217C131.907 35.6483 131.691 35.675 131.475 35.675C131.394 35.675 131.287 35.675 131.206 35.675C131.098 35.675 131.017 35.6483 130.909 35.6217V34.076C131.044 34.1027 131.179 34.1027 131.314 34.1027C131.502 34.1027 131.637 34.076 131.772 34.0494C131.907 34.0227 132.014 33.9161 132.122 33.8095C132.23 33.6763 132.338 33.5164 132.446 33.2499C132.554 33.0101 132.661 32.6636 132.769 32.2639C132.877 31.8375 132.985 31.3312 133.093 30.6916C133.201 30.0787 133.308 29.3325 133.443 28.4531H137.864V28.4798Z" fill="#F9F9F9"/>
    <path d="M142.016 28.4805H143.903L144.981 31.0388C145.385 32.0248 145.682 32.7443 145.844 33.1973H145.871C146.005 32.8242 146.248 32.158 146.652 31.172L147.758 28.4805H149.672L145.062 38.9801H143.337L144.981 35.196L142.016 28.4805Z" fill="#F9F9F9"/>
    <path d="M160.645 32.0245C160.645 32.5841 160.564 33.0905 160.402 33.5435C160.24 33.9965 159.998 34.3962 159.674 34.716C159.351 35.0358 158.973 35.3023 158.542 35.4622C158.11 35.6221 157.598 35.7287 157.059 35.7287C156.493 35.7287 155.981 35.6487 155.549 35.4622C155.118 35.2757 154.714 35.0358 154.417 34.716C154.094 34.3962 153.878 33.9965 153.716 33.5435C153.555 33.0905 153.474 32.5841 153.474 32.0245C153.474 31.4649 153.555 30.9585 153.716 30.5055C153.878 30.0525 154.121 29.6528 154.444 29.333C154.768 29.0132 155.145 28.7467 155.576 28.5868C156.008 28.4003 156.52 28.3203 157.059 28.3203C157.625 28.3203 158.137 28.4003 158.569 28.5868C159.027 28.7733 159.404 29.0132 159.701 29.333C160.024 29.6528 160.24 30.0525 160.402 30.5055C160.564 30.9585 160.645 31.4649 160.645 32.0245ZM158.838 32.0245C158.838 31.6514 158.784 31.305 158.704 31.0385C158.623 30.7454 158.488 30.5055 158.326 30.319C158.164 30.1324 157.976 29.9725 157.76 29.8926C157.544 29.786 157.302 29.7593 157.032 29.7593C156.763 29.7593 156.547 29.8126 156.331 29.8926C156.116 29.9992 155.927 30.1324 155.765 30.319C155.603 30.5055 155.496 30.7454 155.388 31.0385C155.307 31.3316 155.253 31.6514 155.253 32.0245C155.253 32.3976 155.307 32.744 155.388 33.0105C155.469 33.3036 155.603 33.5435 155.765 33.73C155.927 33.9166 156.116 34.0765 156.331 34.1564C156.547 34.263 156.79 34.3163 157.059 34.3163C157.329 34.3163 157.571 34.263 157.787 34.1564C158.003 34.0498 158.191 33.9166 158.353 33.73C158.515 33.5435 158.623 33.3036 158.731 33.0105C158.784 32.7174 158.838 32.3976 158.838 32.0245Z" fill="#F9F9F9"/>
    <path d="M161.722 28.7203C162.1 28.5871 162.477 28.4538 162.909 28.4005C163.34 28.3206 163.771 28.2939 164.176 28.2939C164.634 28.2939 165.065 28.3472 165.443 28.4538C165.82 28.5604 166.117 28.6937 166.386 28.8802C166.629 29.0668 166.845 29.28 166.979 29.5198C167.114 29.7596 167.168 30.0528 167.168 30.3726C167.168 30.7456 167.087 31.0388 166.898 31.3053C166.71 31.5718 166.494 31.7583 166.225 31.8915V31.9182C166.386 31.9715 166.548 32.0514 166.683 32.1314C166.818 32.2113 166.952 32.3446 167.06 32.4512C167.168 32.5844 167.249 32.7177 167.303 32.8775C167.357 33.0374 167.384 33.224 167.384 33.4372C167.384 33.757 167.33 34.0501 167.195 34.3166C167.06 34.6097 166.872 34.8496 166.602 35.0627C166.332 35.2759 165.982 35.4358 165.578 35.5691C165.146 35.7023 164.661 35.7556 164.068 35.7556C163.583 35.7556 163.124 35.729 162.72 35.649C162.316 35.5691 161.965 35.4625 161.642 35.3292V33.9435C162.019 34.1034 162.396 34.21 162.774 34.2899C163.151 34.3699 163.502 34.3965 163.852 34.3965C164.176 34.3965 164.445 34.3699 164.661 34.3432C164.877 34.2899 165.065 34.2366 165.173 34.1567C165.308 34.0767 165.389 33.9701 165.443 33.8636C165.497 33.757 165.524 33.6237 165.524 33.4905C165.524 33.0907 165.308 32.8509 164.904 32.7709C164.742 32.7443 164.499 32.7177 164.203 32.7177H162.558V31.3586H164.284C164.526 31.3586 164.715 31.3319 164.823 31.3053C165.011 31.252 165.119 31.1454 165.2 31.0121C165.281 30.8789 165.308 30.7456 165.308 30.5857C165.308 30.3193 165.2 30.1327 164.984 29.9728C164.769 29.8396 164.418 29.7596 163.96 29.7596C163.583 29.7596 163.205 29.8129 162.801 29.8929C162.423 29.9728 162.046 30.0794 161.696 30.186V28.7203H161.722Z" fill="#F9F9F9"/>
    <path d="M172.614 34.3432C172.965 34.3432 173.315 34.3166 173.692 34.2366C174.07 34.1567 174.447 34.0767 174.825 33.9435V35.3292C174.609 35.4358 174.259 35.5158 173.773 35.5957C173.315 35.6757 172.83 35.729 172.318 35.729C171.805 35.729 171.32 35.6757 170.862 35.5424C170.403 35.4092 169.999 35.196 169.676 34.9295C169.325 34.6364 169.056 34.2633 168.867 33.8103C168.678 33.3572 168.57 32.7976 168.57 32.1314C168.57 31.4918 168.651 30.9322 168.84 30.4525C169.029 29.9728 169.271 29.5731 169.595 29.2533C169.918 28.9335 170.269 28.6937 170.673 28.5338C171.077 28.3739 171.509 28.2939 171.94 28.2939C172.398 28.2939 172.803 28.3739 173.207 28.5071C173.585 28.6404 173.908 28.8536 174.205 29.1467C174.474 29.4398 174.69 29.8129 174.852 30.266C175.013 30.719 175.094 31.2786 175.094 31.8915C175.094 32.1314 175.094 32.3446 175.067 32.5045H170.323C170.35 32.8242 170.43 33.1174 170.538 33.3306C170.673 33.5704 170.835 33.757 171.024 33.8902C171.212 34.0234 171.455 34.13 171.724 34.21C171.994 34.3166 172.291 34.3432 172.614 34.3432ZM171.913 29.653C171.697 29.653 171.482 29.7063 171.32 29.7863C171.158 29.8662 170.997 29.9728 170.862 30.1061C170.727 30.2393 170.646 30.3992 170.565 30.5857C170.484 30.7723 170.43 30.9588 170.43 31.172H173.261C173.261 30.9588 173.234 30.7723 173.18 30.5857C173.126 30.3992 173.045 30.2393 172.938 30.1061C172.83 29.9728 172.695 29.8662 172.533 29.7863C172.318 29.6797 172.129 29.653 171.913 29.653Z" fill="#F9F9F9"/>
    <path d="M180.27 35.7287C179.893 35.7287 179.542 35.6487 179.219 35.5155C178.895 35.3823 178.653 35.1957 178.437 35.0092H178.41C178.41 35.1158 178.41 35.249 178.437 35.4355C178.437 35.6221 178.437 35.8086 178.437 36.0218V38.9798H176.685V28.4802H178.221L178.302 29.2797H178.329C178.545 28.9865 178.814 28.7733 179.165 28.5868C179.515 28.4003 179.893 28.3203 180.351 28.3203C180.728 28.3203 181.133 28.4003 181.51 28.5335C181.888 28.6667 182.211 28.9066 182.508 29.1997C182.804 29.4929 183.02 29.8659 183.208 30.319C183.37 30.772 183.478 31.305 183.478 31.9446C183.478 32.6108 183.397 33.1704 183.208 33.6501C183.02 34.1298 182.777 34.5295 182.481 34.8493C182.184 35.1691 181.834 35.4089 181.456 35.5421C181.052 35.6487 180.674 35.7287 180.27 35.7287ZM180.027 29.6794C179.731 29.6794 179.434 29.7593 179.165 29.8926C178.895 30.0258 178.653 30.239 178.437 30.4789V33.6501C178.518 33.73 178.599 33.81 178.706 33.8899C178.814 33.9699 178.922 34.0498 179.057 34.1298C179.192 34.2097 179.326 34.263 179.488 34.2897C179.65 34.343 179.812 34.3429 179.973 34.3429C180.243 34.3429 180.486 34.2897 180.701 34.1831C180.917 34.0765 181.079 33.9166 181.241 33.7034C181.375 33.4902 181.483 33.2503 181.564 32.9572C181.645 32.6641 181.672 32.3443 181.672 31.9979C181.672 31.6248 181.645 31.2783 181.564 30.9852C181.483 30.6921 181.375 30.4522 181.241 30.2657C181.106 30.0791 180.944 29.9192 180.728 29.8393C180.513 29.7327 180.27 29.6794 180.027 29.6794Z" fill="#F9F9F9"/>
    <path d="M189.22 34.7956H189.193C189.085 34.9022 188.977 35.0088 188.843 35.1154C188.708 35.2219 188.546 35.3285 188.357 35.4085C188.169 35.5151 187.98 35.5684 187.764 35.6483C187.549 35.7016 187.306 35.7283 187.063 35.7283C186.713 35.7283 186.416 35.675 186.12 35.5684C185.823 35.4618 185.581 35.3019 185.365 35.1154C185.149 34.9288 184.988 34.689 184.853 34.3958C184.745 34.1027 184.664 33.8096 184.664 33.4631C184.664 33.09 184.745 32.7436 184.88 32.4505C185.015 32.1573 185.203 31.8908 185.473 31.6777C185.715 31.4645 186.012 31.3046 186.362 31.198C186.713 31.0914 187.09 31.0381 187.522 31.0381C187.845 31.0381 188.115 31.0647 188.384 31.0914C188.654 31.118 188.87 31.1713 189.085 31.2246V30.9315C189.085 30.7716 189.058 30.6117 189.004 30.4518C188.95 30.2919 188.87 30.1587 188.735 30.0521C188.6 29.9455 188.438 29.8389 188.25 29.7589C188.034 29.679 187.791 29.6523 187.522 29.6523C187.171 29.6523 186.821 29.679 186.443 29.7589C186.093 29.8389 185.715 29.9455 185.284 30.1054V28.7463C185.635 28.5864 186.039 28.4798 186.443 28.3998C186.848 28.3199 187.279 28.2666 187.71 28.2666C188.223 28.2666 188.681 28.3199 189.085 28.4531C189.49 28.5864 189.813 28.7463 190.056 28.9861C190.325 29.1993 190.514 29.4658 190.649 29.7589C190.784 30.0521 190.838 30.3985 190.838 30.7449V33.4098C190.838 33.8895 190.838 34.2892 190.864 34.609C190.864 34.9555 190.891 35.2486 190.891 35.5151H189.301L189.22 34.7956ZM189.085 32.5304C188.923 32.5038 188.735 32.4505 188.519 32.4238C188.303 32.3972 188.088 32.3705 187.872 32.3705C187.441 32.3705 187.09 32.4505 186.848 32.6104C186.605 32.7703 186.47 33.0367 186.47 33.3832C186.47 33.5431 186.497 33.6763 186.551 33.8096C186.605 33.9162 186.686 34.0227 186.794 34.1027C186.902 34.1826 187.009 34.2359 187.117 34.2892C187.225 34.3425 187.387 34.3425 187.522 34.3425C187.71 34.3425 187.872 34.3159 188.034 34.2626C188.196 34.2093 188.33 34.156 188.465 34.076C188.6 33.9961 188.708 33.9162 188.816 33.8362C188.923 33.7563 189.004 33.6763 189.085 33.5697V32.5304Z" fill="#F9F9F9"/>
</svg>
